<svg width="20" height="20" viewBox="0 0 20 20" fill="none" xmlns="http://www.w3.org/2000/svg">
<path d="M9.30438 2.2605C11.2559 2.21841 12.8243 2.1635 14.0417 2.22729C15.248 2.29055 16.2597 2.47338 17.0231 3.01343C17.8221 3.57886 18.2257 4.44206 18.4401 5.55835C18.6516 6.65977 18.6999 8.11808 18.6999 10.0007C18.6999 11.8832 18.6516 13.3408 18.4401 14.4421C18.2257 15.5586 17.8224 16.4226 17.0231 16.988C16.2597 17.5281 15.248 17.7099 14.0417 17.7732C12.8243 17.837 11.2559 17.7821 9.30438 17.74C7.64914 17.7043 6.61334 17.696 5.67352 17.2498C4.73746 16.8052 4.15869 16.1069 3.22723 15.0134C2.55348 14.2224 1.84054 13.3234 1.29266 12.4753C1.01887 12.0515 0.777515 11.6258 0.602234 11.2234C0.431613 10.8316 0.299662 10.4077 0.2995 10.0007C0.2995 9.59359 0.431535 9.16909 0.602234 8.7771C0.77751 8.37468 1.01883 7.94903 1.29266 7.52515C1.84054 6.67706 2.55343 5.7781 3.22723 4.98706C4.1588 3.89342 4.73739 3.19535 5.67352 2.75073C6.6134 2.30437 7.64902 2.2962 9.30438 2.2605ZM13.9684 3.62573C12.8186 3.56547 11.3284 3.61691 9.33466 3.65991C7.56067 3.69817 6.8814 3.72696 6.27411 4.01538C5.66305 4.30561 5.28112 4.73484 4.29266 5.89526C3.63624 6.66591 2.96902 7.51162 2.46942 8.28491C2.21952 8.67175 2.01983 9.02715 1.88544 9.33569C1.74658 9.65455 1.69989 9.87325 1.69989 10.0007C1.70007 10.1283 1.74679 10.3465 1.88544 10.6648C2.01984 10.9733 2.21956 11.3288 2.46942 11.7156C2.96901 12.4888 3.6363 13.3347 4.29266 14.1052C5.28094 15.2654 5.66311 15.6949 6.27411 15.9851C6.88134 16.2734 7.5609 16.3023 9.33466 16.3406C11.3284 16.3836 12.8186 16.435 13.9684 16.3748C15.1288 16.3139 15.7945 16.1416 16.2145 15.8445C16.5987 15.5727 16.886 15.116 17.0661 14.1785C17.2491 13.2255 17.2995 11.8935 17.2995 10.0007C17.2995 8.1078 17.2491 6.77513 17.0661 5.82202C16.886 4.88452 16.5986 4.42786 16.2145 4.15601C15.7945 3.8589 15.1288 3.68659 13.9684 3.62573ZM14.321 7.66675L11.988 9.99976L14.322 12.3337L13.3317 13.324L10.9977 10.99L8.66473 13.324L7.6745 12.3337L10.0075 9.99976L7.6745 7.66675L8.66473 6.67651L10.9977 9.00952L13.3317 6.67651L14.321 7.66675Z" fill="white"/>
</svg>
