<svg width="20" height="28" viewBox="0 0 20 28" fill="none" xmlns="http://www.w3.org/2000/svg">
<path d="M10.0003 18.167C10.2364 18.167 10.4344 18.0871 10.5941 17.9274C10.7538 17.7677 10.8337 17.5698 10.8337 17.3337C10.8337 17.0975 10.7538 16.8996 10.5941 16.7399C10.4344 16.5802 10.2364 16.5003 10.0003 16.5003C9.76421 16.5003 9.5663 16.5802 9.40658 16.7399C9.24685 16.8996 9.16699 17.0975 9.16699 17.3337C9.16699 17.5698 9.24685 17.7677 9.40658 17.9274C9.5663 18.0871 9.76421 18.167 10.0003 18.167ZM9.16699 14.8337H10.8337V9.83366H9.16699V14.8337ZM10.0003 22.3337C8.84755 22.3337 7.76421 22.1149 6.75033 21.6774C5.73644 21.2399 4.85449 20.6462 4.10449 19.8962C3.35449 19.1462 2.76074 18.2642 2.32324 17.2503C1.88574 16.2364 1.66699 15.1531 1.66699 14.0003C1.66699 12.8475 1.88574 11.7642 2.32324 10.7503C2.76074 9.73644 3.35449 8.85449 4.10449 8.10449C4.85449 7.35449 5.73644 6.76074 6.75033 6.32324C7.76421 5.88574 8.84755 5.66699 10.0003 5.66699C11.1531 5.66699 12.2364 5.88574 13.2503 6.32324C14.2642 6.76074 15.1462 7.35449 15.8962 8.10449C16.6462 8.85449 17.2399 9.73644 17.6774 10.7503C18.1149 11.7642 18.3337 12.8475 18.3337 14.0003C18.3337 15.1531 18.1149 16.2364 17.6774 17.2503C17.2399 18.2642 16.6462 19.1462 15.8962 19.8962C15.1462 20.6462 14.2642 21.2399 13.2503 21.6774C12.2364 22.1149 11.1531 22.3337 10.0003 22.3337Z" fill="#BA434D"/>
</svg>
