<svg width="20" height="20" viewBox="0 0 20 20" fill="none" xmlns="http://www.w3.org/2000/svg">
<path d="M10 1.89941C12.465 1.89941 14.2607 2.12246 15.3379 3.42969C15.8687 4.07429 16.1768 4.92554 16.3574 5.98438C16.538 7.04353 16.5996 8.3661 16.5996 9.99902C16.5996 11.632 16.538 12.9545 16.3574 14.0137C16.1768 15.0727 15.8688 15.9237 15.3379 16.5684C14.2607 17.876 12.4652 18.0986 10 18.0986C7.53497 18.0986 5.73921 17.8759 4.66211 16.5684C4.1314 15.9237 3.82315 15.0725 3.64258 14.0137C3.46202 12.9545 3.40039 11.6319 3.40039 9.99902C3.4004 8.3661 3.46198 7.04353 3.64258 5.98438C3.8232 4.92548 4.13124 4.07432 4.66211 3.42969C5.73922 2.12219 7.535 1.89944 10 1.89941ZM10 3.09863C7.46577 3.09866 6.26074 3.37637 5.58789 4.19336C5.24405 4.61107 4.98927 5.22962 4.82617 6.18555C4.66309 7.1418 4.59962 8.38249 4.59961 9.99902C4.59961 11.6155 4.66313 12.8562 4.82617 13.8125C4.98921 14.7683 5.24419 15.3869 5.58789 15.8047C6.26073 16.6217 7.46573 16.8994 10 16.8994C12.5345 16.8994 13.7392 16.6217 14.4121 15.8047C14.756 15.3869 15.0107 14.7686 15.1738 13.8125C15.3369 12.8562 15.4004 11.6156 15.4004 9.99902C15.4004 8.38249 15.3369 7.1418 15.1738 6.18555C15.0107 5.2297 14.7559 4.61105 14.4121 4.19336C13.7392 3.37663 12.5341 3.09863 10 3.09863ZM9.5 4.90039C10.6598 4.90039 11.5996 5.8402 11.5996 7C11.5994 7.95109 10.9668 8.7527 10.0996 9.01074V11.3994H10.2109L11.3311 9.99902H12.8691L11.2422 12.0312L12.8877 14.499H11.4453L10.1787 12.5986H10.0996V14.5H8.90039V9.01074C8.03324 8.75268 7.4006 7.95106 7.40039 7C7.40039 5.84022 8.34022 4.90042 9.5 4.90039ZM9.5 6.09961C9.00297 6.09964 8.59961 6.50296 8.59961 7C8.59986 7.49683 9.00312 7.90036 9.5 7.90039C9.9969 7.90039 10.4001 7.49684 10.4004 7C10.4004 6.50294 9.99706 6.09961 9.5 6.09961Z" fill="white" fill-opacity="0.7"/>
</svg>
