<svg width="17" height="17" viewBox="0 0 17 17" fill="none" xmlns="http://www.w3.org/2000/svg">
<path d="M5.33333 10.5417C5.45833 10.2083 5.55903 9.85764 5.63542 9.48958C5.71181 9.12153 5.75 8.73611 5.75 8.33333C5.75 7.93056 5.71181 7.54514 5.63542 7.17708C5.55903 6.80903 5.45833 6.45833 5.33333 6.125L3.79167 6.75C3.875 7 3.94444 7.25694 4 7.52083C4.05556 7.78472 4.08333 8.05556 4.08333 8.33333C4.08333 8.61111 4.05556 8.88194 4 9.14583C3.94444 9.40972 3.875 9.66667 3.79167 9.91667L5.33333 10.5417ZM8 11.6667C8.23611 11.1389 8.40625 10.5972 8.51042 10.0417C8.61458 9.48611 8.66667 8.91667 8.66667 8.33333C8.66667 7.75 8.61458 7.18056 8.51042 6.625C8.40625 6.06944 8.23611 5.52778 8 5L6.45833 5.625C6.65278 6.04167 6.79167 6.47569 6.875 6.92708C6.95833 7.37847 7 7.84722 7 8.33333C7 8.81944 6.95833 9.28819 6.875 9.73958C6.79167 10.191 6.65278 10.625 6.45833 11.0417L8 11.6667ZM10.7083 12.7917C11 12.0972 11.2187 11.3785 11.3646 10.6354C11.5104 9.89236 11.5833 9.125 11.5833 8.33333C11.5833 7.54167 11.5104 6.77431 11.3646 6.03125C11.2187 5.28819 11 4.56944 10.7083 3.875L9.16667 4.54167C9.41667 5.125 9.60417 5.73611 9.72917 6.375C9.85417 7.01389 9.91667 7.66667 9.91667 8.33333C9.91667 9 9.85417 9.65278 9.72917 10.2917C9.60417 10.9306 9.41667 11.5417 9.16667 12.125L10.7083 12.7917ZM8.33333 16.6667C7.18056 16.6667 6.09722 16.4479 5.08333 16.0104C4.06944 15.5729 3.1875 14.9792 2.4375 14.2292C1.6875 13.4792 1.09375 12.5972 0.65625 11.5833C0.21875 10.5694 0 9.48611 0 8.33333C0 7.18056 0.21875 6.09722 0.65625 5.08333C1.09375 4.06944 1.6875 3.1875 2.4375 2.4375C3.1875 1.6875 4.06944 1.09375 5.08333 0.65625C6.09722 0.21875 7.18056 0 8.33333 0C9.48611 0 10.5694 0.21875 11.5833 0.65625C12.5972 1.09375 13.4792 1.6875 14.2292 2.4375C14.9792 3.1875 15.5729 4.06944 16.0104 5.08333C16.4479 6.09722 16.6667 7.18056 16.6667 8.33333C16.6667 9.48611 16.4479 10.5694 16.0104 11.5833C15.5729 12.5972 14.9792 13.4792 14.2292 14.2292C13.4792 14.9792 12.5972 15.5729 11.5833 16.0104C10.5694 16.4479 9.48611 16.6667 8.33333 16.6667ZM8.33333 15C10.1944 15 11.7708 14.3542 13.0625 13.0625C14.3542 11.7708 15 10.1944 15 8.33333C15 6.47222 14.3542 4.89583 13.0625 3.60417C11.7708 2.3125 10.1944 1.66667 8.33333 1.66667C6.47222 1.66667 4.89583 2.3125 3.60417 3.60417C2.3125 4.89583 1.66667 6.47222 1.66667 8.33333C1.66667 10.1944 2.3125 11.7708 3.60417 13.0625C4.89583 14.3542 6.47222 15 8.33333 15Z" fill="currentColor"/>
</svg>
