<svg width="15" height="15" viewBox="0 0 15 15" fill="none" xmlns="http://www.w3.org/2000/svg">
<path d="M0 6.66667V0H6.66667V6.66667H0ZM1.66667 5H5V1.66667H1.66667V5ZM0 15V8.33333H6.66667V15H0ZM1.66667 13.3333H5V10H1.66667V13.3333ZM8.33333 6.66667V0H15V6.66667H8.33333ZM10 5H13.3333V1.66667H10V5ZM13.3333 15V13.3333H15V15H13.3333ZM8.33333 10V8.33333H10V10H8.33333ZM10 11.6667V10H11.6667V11.6667H10ZM8.33333 13.3333V11.6667H10V13.3333H8.33333ZM10 15V13.3333H11.6667V15H10ZM11.6667 13.3333V11.6667H13.3333V13.3333H11.6667ZM11.6667 10V8.33333H13.3333V10H11.6667ZM13.3333 11.6667V10H15V11.6667H13.3333Z" fill="white"/>
</svg>
