<svg width="17" height="17" viewBox="0 0 17 17" fill="none" xmlns="http://www.w3.org/2000/svg">
<path d="M0 4.16667V0H4.16667V1.66667H1.66667V4.16667H0ZM0 16.6667V12.5H1.66667V15H4.16667V16.6667H0ZM12.5 16.6667V15H15V12.5H16.6667V16.6667H12.5ZM15 4.16667V1.66667H12.5V0H16.6667V4.16667H15ZM12.9167 12.9167H14.1667V14.1667H12.9167V12.9167ZM12.9167 10.4167H14.1667V11.6667H12.9167V10.4167ZM11.6667 11.6667H12.9167V12.9167H11.6667V11.6667ZM10.4167 12.9167H11.6667V14.1667H10.4167V12.9167ZM9.16667 11.6667H10.4167V12.9167H9.16667V11.6667ZM11.6667 9.16667H12.9167V10.4167H11.6667V9.16667ZM10.4167 10.4167H11.6667V11.6667H10.4167V10.4167ZM9.16667 9.16667H10.4167V10.4167H9.16667V9.16667ZM14.1667 2.5V7.5H9.16667V2.5H14.1667ZM7.5 9.16667V14.1667H2.5V9.16667H7.5ZM7.5 2.5V7.5H2.5V2.5H7.5ZM6.25 12.9167V10.4167H3.75V12.9167H6.25ZM6.25 6.25V3.75H3.75V6.25H6.25ZM12.9167 6.25V3.75H10.4167V6.25H12.9167Z" fill="white"/>
</svg>
