<svg width="16" height="16" viewBox="0 0 16 16" fill="none" xmlns="http://www.w3.org/2000/svg">
<path d="M1.20117 9.54785C1.238 10.1232 1.29536 10.6235 1.37891 11.0596C1.54671 11.935 1.81032 12.5009 2.17285 12.8877C2.53169 13.2705 3.04621 13.5405 3.83887 13.7119C4.31731 13.8154 4.88096 13.8782 5.54785 13.9131V15.1152C4.80948 15.0787 4.15685 15.0084 3.58496 14.8848C2.6434 14.6811 1.87648 14.3252 1.29785 13.708C0.723141 13.0949 0.392723 12.2853 0.201172 11.2861C0.102646 10.772 0.0390618 10.1942 0 9.54785H1.20117ZM15.0557 9.54785C14.8577 11.4822 14.3176 12.8552 13.2471 13.7568C12.3271 14.5316 11.0856 14.8909 9.54785 15.0449V13.8369C10.8882 13.6915 11.821 13.3885 12.4736 12.8389C13.1943 12.2319 13.6592 11.2447 13.8496 9.54785H15.0557ZM10.5479 8.14746H4.54785V6.94824H10.5479V8.14746ZM5.54785 1.20215C4.97345 1.23985 4.47449 1.29885 4.04004 1.38574C3.17002 1.55979 2.60843 1.83494 2.22168 2.22168C1.83496 2.60842 1.5598 3.17005 1.38574 4.04004C1.29885 4.47449 1.23985 4.9735 1.20215 5.54785H0.000976562C0.0411002 4.90063 0.106861 4.32129 0.209961 3.80566C0.410906 2.801 0.760881 1.98718 1.37402 1.37402C1.98709 0.760974 2.80025 0.410916 3.80469 0.209961C4.32051 0.106793 4.90014 0.0401106 5.54785 0V1.20215ZM9.54785 0C10.1951 0.0401135 10.7744 0.106837 11.29 0.209961C12.2947 0.410894 13.1085 0.760914 13.7217 1.37402C14.3347 1.98705 14.6847 2.80033 14.8857 3.80469C14.9889 4.32049 15.0546 4.90021 15.0947 5.54785H13.8936C13.8556 4.97393 13.7958 4.4753 13.709 4.04102C13.5349 3.17084 13.2599 2.60848 12.873 2.22168C12.4862 1.83512 11.9246 1.55972 11.0547 1.38574C10.6204 1.29891 10.1218 1.23986 9.54785 1.20215V0Z" fill="white" fill-opacity="0.7"/>
</svg>
