<svg width="114" height="114" viewBox="0 0 114 114" fill="none" xmlns="http://www.w3.org/2000/svg">
<circle cx="57" cy="57" r="54" stroke="#FF6400" stroke-width="3"/>
<path d="M68.9375 78.5076L68.9375 36C68.9375 31.5817 65.3558 28 60.9375 28L15.2478 28C13.4338 28 11.7476 28.9689 10.8621 30.5522C7.95263 35.7544 3.0004 45.5568 3.0004 57.2538C3.0004 68.9508 7.95263 78.7532 10.8621 83.9554C11.7475 85.5386 13.4338 86.5076 15.2478 86.5076L60.9375 86.5076C65.3558 86.5076 68.9375 82.9258 68.9375 78.5076Z" stroke="#FF6400" stroke-width="3"/>
<path d="M39.8063 62.8584L39.7578 50.4406C39.7527 49.0426 40.881 47.9043 42.2792 47.8986L55.5086 47.8481C56.9068 47.8425 58.0441 48.9722 58.0493 50.3702L58.0975 62.7879C58.1034 64.1859 56.9744 65.3242 55.5765 65.3281L42.3468 65.3803C40.9487 65.386 39.8112 64.2564 39.8063 62.8584Z" stroke="#FF6400" stroke-width="1.05769" stroke-miterlimit="10" stroke-linecap="round" stroke-linejoin="round"/>
<path d="M44.6472 52.3946C45.7438 52.3906 46.6356 53.2757 46.6403 54.3718L46.6583 59.0434C46.6622 60.1412 45.7774 61.0321 44.6807 61.0379L39.799 61.0561" stroke="#FF6400" stroke-width="1.05769" stroke-miterlimit="10" stroke-linecap="round" stroke-linejoin="round"/>
<path d="M39.7655 52.413L44.6472 52.3948L39.7655 52.413Z" fill="#FF6400"/>
<path d="M39.7655 52.413L44.6472 52.3948" stroke="#FF6400" stroke-width="1.05769" stroke-miterlimit="10" stroke-linecap="round" stroke-linejoin="round"/>
<path d="M58.0912 60.9788L53.3464 60.9986C52.2499 61.0025 51.3574 60.1174 51.3535 59.0196L51.3348 54.348C51.3307 53.252 52.2165 52.3593 53.313 52.3553L58.0576 52.3374" stroke="#FF6400" stroke-width="1.05769" stroke-miterlimit="10" stroke-linecap="round" stroke-linejoin="round"/>
<path d="M58.0749 56.8531L51.488 56.7733L58.0749 56.8531Z" fill="#FF6400"/>
<path d="M58.0749 56.8531L51.488 56.7733" stroke="#FF6400" stroke-width="1.05769" stroke-miterlimit="10" stroke-linecap="round" stroke-linejoin="round"/>
<path d="M46.485 56.8582L39.8931 56.7472L46.485 56.8582Z" fill="#FF6400"/>
<path d="M46.485 56.8582L39.8931 56.7472" stroke="#FF6400" stroke-width="1.05769" stroke-miterlimit="10" stroke-linecap="round" stroke-linejoin="round"/>
<path d="M46.6567 58.7439L46.64 54.4106L51.3366 54.3919L51.3533 58.7254L46.6567 58.7439Z" stroke="#FF6400" stroke-width="1.05769" stroke-miterlimit="10" stroke-linecap="round" stroke-linejoin="round"/>
<path d="M44.8457 61.0273L44.8744 65.369L44.8457 61.0273Z" fill="#FF6400"/>
<path d="M44.8457 61.0273L44.8744 65.369" stroke="#FF6400" stroke-width="1.05769" stroke-miterlimit="10" stroke-linecap="round" stroke-linejoin="round"/>
<path d="M44.7588 47.8892L44.7885 52.399L44.7588 47.8892Z" fill="#FF6400"/>
<path d="M44.7588 47.8892L44.7885 52.399" stroke="#FF6400" stroke-width="1.05769" stroke-miterlimit="10" stroke-linecap="round" stroke-linejoin="round"/>
<path d="M53.4629 60.9966L53.4917 65.3365L53.4629 60.9966Z" fill="#FF6400"/>
<path d="M53.4629 60.9966L53.4917 65.3365" stroke="#FF6400" stroke-width="1.05769" stroke-miterlimit="10" stroke-linecap="round" stroke-linejoin="round"/>
<path d="M53.377 47.8555L53.4069 52.3546L53.377 47.8555Z" fill="#FF6400"/>
<path d="M53.377 47.8555L53.4069 52.3546" stroke="#FF6400" stroke-width="1.05769" stroke-miterlimit="10" stroke-linecap="round" stroke-linejoin="round"/>
<path d="M85.6169 45.6467C88.6978 48.7276 90.4286 52.9061 90.4286 57.2632C90.4286 61.6202 88.6978 65.7988 85.6169 68.8797" stroke="#FF6400" stroke-width="3" stroke-linecap="round"/>
<path d="M79.9698 50.2936C81.8183 52.142 82.8567 54.6491 82.8567 57.2632C82.8567 59.8773 81.8183 62.3844 79.9698 64.2328" stroke="#FF6400" stroke-width="3" stroke-linecap="round"/>
<path d="M91.2629 41.0002C95.5762 45.3135 97.9993 51.1635 97.9993 57.2634C97.9993 63.3632 95.5763 69.2139 91.2631 73.5272" stroke="#FF6400" stroke-width="3" stroke-linecap="round"/>
</svg>
