<svg width="114" height="114" viewBox="0 0 114 114" fill="none" xmlns="http://www.w3.org/2000/svg">
<circle cx="57.5" cy="57" r="54" stroke="#E95460" stroke-width="3"/>
<path fill-rule="evenodd" clip-rule="evenodd" d="M72.1986 45.945C72.7903 45.3533 72.7903 44.3939 72.1986 43.8022C71.6069 43.2105 70.6475 43.2105 70.0558 43.8022L58.5004 55.3576L46.945 43.8022C46.3533 43.2105 45.3939 43.2105 44.8022 43.8022C44.2105 44.3939 44.2105 45.3533 44.8022 45.9451L56.3576 57.5004L44.8022 69.0558C44.2105 69.6475 44.2105 70.6069 44.8022 71.1986C45.3939 71.7904 46.3533 71.7904 46.945 71.1986L58.5004 59.6433L70.0558 71.1986C70.6475 71.7904 71.6069 71.7904 72.1986 71.1986C72.7904 70.6069 72.7904 69.6475 72.1986 69.0558L60.6432 57.5004L72.1986 45.945Z" fill="#E95460"/>
</svg>
