<svg xmlns="http://www.w3.org/2000/svg" viewBox="0 0 1024 1024" width="1024" height="1024">
  <defs>
    <linearGradient id="qr" x1="112" y1="112" x2="912" y2="912" gradientUnits="userSpaceOnUse">
      <stop offset="0" stop-color="#ffffff"/>
      <stop offset="1" stop-color="#e2e2e2"/>
    </linearGradient>
    <linearGradient id="plate" x1="0" y1="0" x2="1024" y2="1024" gradientUnits="userSpaceOnUse">
      <stop offset="0" stop-color="#2d2d2d"/>
      <stop offset="0.52" stop-color="#1e1e1e"/>
      <stop offset="1" stop-color="#121212"/>
    </linearGradient>
    <filter id="shadow" x="-12%" y="-12%" width="124%" height="124%">
      <feDropShadow dx="0" dy="24" stdDeviation="28" flood-color="#000000" flood-opacity="0.32"/>
    </filter>
  </defs>

  <rect x="0" y="0" width="1024" height="1024" fill="url(#plate)"/>

  <g fill="url(#qr)">
    <path d="M72 280V72h208v64H136v144H72Z"/>
    <path d="M72 952V744h64v144h144v64H72Z"/>
    <path d="M744 952v-64h144V744h64v208H744Z"/>
    <path d="M888 280V136H744V72h208v208h-64Z"/>
  </g>

  <g transform="translate(184 184) scale(43.733333)" fill="url(#qr)">
    <path d="M0 15V8.33333H6.66667V15H0ZM1.66667 13.3333H5V10H1.66667V13.3333ZM3.33333 11.6667H3.33343V11.6668H3.33333V11.6667Z" fill-rule="evenodd"/>
    <path d="M8.33333 6.66667V0H15V6.66667H8.33333ZM10 5H13.3333V1.66667H10V5ZM11.6667 3.33333H11.6668V3.33343H11.6667V3.33333Z" fill-rule="evenodd"/>
    <rect x="13.3333" y="13.3333" width="1.6667" height="1.6667"/>
    <rect x="8.3333" y="8.3333" width="1.6667" height="1.6667"/>
    <rect x="10" y="10" width="1.6667" height="1.6667"/>
    <rect x="8.3333" y="11.6667" width="1.6667" height="1.6666"/>
    <rect x="10" y="13.3333" width="1.6667" height="1.6667"/>
    <rect x="11.6667" y="11.6667" width="1.6666" height="1.6666"/>
    <rect x="11.6667" y="8.3333" width="1.6666" height="1.6667"/>
    <rect x="13.3333" y="10" width="1.6667" height="1.6667"/>
  </g>

  <g transform="translate(159 163) rotate(45 146 146)" fill="none" stroke="#ff6400" stroke-width="44" stroke-linecap="round" stroke-linejoin="round">
    <circle cx="92" cy="146" r="60"/>
    <path d="M152 146h192"/>
    <path d="M280 146v69"/>
    <path d="M344 146v52"/>
  </g>
</svg>
